<?xml version="1.0" encoding="UTF-8"?>
<svg xmlns="http://www.w3.org/2000/svg" xmlns:xlink="http://www.w3.org/1999/xlink" width="32px" height="32px" viewBox="0 0 32 32" version="1.1">
<defs>
<linearGradient id="linear0" gradientUnits="userSpaceOnUse" x1="8" y1="8" x2="56" y2="56" >
<stop offset="0" style="stop-color:rgb(14.509804%,38.823529%,92.156863%);stop-opacity:1;"/>
<stop offset="0.5" style="stop-color:rgb(48.627451%,22.745098%,92.941176%);stop-opacity:1;"/>
<stop offset="1" style="stop-color:rgb(2.352941%,71.372549%,83.137255%);stop-opacity:1;"/>
</linearGradient>
<linearGradient id="linear1" gradientUnits="userSpaceOnUse" x1="8" y1="8" x2="56" y2="56" gradientTransform="matrix(0.5,0,0,0.5,0,0)">
<stop offset="0" style="stop-color:rgb(14.509804%,38.823529%,92.156863%);stop-opacity:1;"/>
<stop offset="0.5" style="stop-color:rgb(48.627451%,22.745098%,92.941176%);stop-opacity:1;"/>
<stop offset="1" style="stop-color:rgb(2.352941%,71.372549%,83.137255%);stop-opacity:1;"/>
</linearGradient>
</defs>
<g id="surface1">
<path style=" stroke:none;fill-rule:nonzero;fill:rgb(4.313726%,6.27451%,12.54902%);fill-opacity:1;" d="M 31 16 C 31 7.714844 24.285156 1 16 1 C 7.714844 1 1 7.714844 1 16 C 1 24.285156 7.714844 31 16 31 C 24.285156 31 31 24.285156 31 16 Z M 31 16 "/>
<path style="fill:none;stroke-width:2.5;stroke-linecap:butt;stroke-linejoin:miter;stroke:url(#linear0);stroke-miterlimit:4;" d="M 60 32 C 60 16.539062 47.460938 4 32 4 C 16.539062 4 4 16.539062 4 32 C 4 47.460938 16.539062 60 32 60 C 47.460938 60 60 47.460938 60 32 Z M 60 32 " transform="matrix(0.5,0,0,0.5,0,0)"/>
<path style=" stroke:none;fill-rule:nonzero;fill:url(#linear1);" d="M 7.875 9.90625 L 11.03125 9.90625 C 11.75 9.90625 12.296875 9.964844 12.671875 10.078125 C 13.171875 10.226562 13.597656 10.492188 13.953125 10.875 C 14.316406 11.25 14.59375 11.714844 14.78125 12.265625 C 14.96875 12.808594 15.0625 13.480469 15.0625 14.28125 C 15.0625 14.992188 14.976562 15.601562 14.8125 16.109375 C 14.59375 16.734375 14.285156 17.242188 13.890625 17.625 C 13.585938 17.929688 13.179688 18.15625 12.671875 18.3125 C 12.285156 18.4375 11.769531 18.5 11.125 18.5 L 7.875 18.5 Z M 9.609375 11.359375 L 9.609375 17.046875 L 10.890625 17.046875 C 11.378906 17.046875 11.734375 17.023438 11.953125 16.96875 C 12.234375 16.898438 12.460938 16.777344 12.640625 16.609375 C 12.828125 16.445312 12.976562 16.167969 13.09375 15.78125 C 13.21875 15.398438 13.28125 14.871094 13.28125 14.203125 C 13.28125 13.546875 13.21875 13.042969 13.09375 12.6875 C 12.976562 12.324219 12.816406 12.042969 12.609375 11.84375 C 12.398438 11.648438 12.132812 11.511719 11.8125 11.4375 C 11.5625 11.386719 11.082031 11.359375 10.375 11.359375 Z M 20.539062 15.34375 L 20.539062 13.890625 L 24.273438 13.890625 L 24.273438 17.3125 C 23.90625 17.667969 23.382812 17.980469 22.695312 18.25 C 22.007812 18.507812 21.308594 18.640625 20.601562 18.640625 C 19.703125 18.640625 18.917969 18.453125 18.242188 18.078125 C 17.574219 17.703125 17.074219 17.167969 16.742188 16.46875 C 16.40625 15.761719 16.242188 14.996094 16.242188 14.171875 C 16.242188 13.277344 16.429688 12.484375 16.804688 11.796875 C 17.179688 11.101562 17.726562 10.5625 18.445312 10.1875 C 18.996094 9.90625 19.683594 9.765625 20.507812 9.765625 C 21.570312 9.765625 22.398438 9.992188 22.992188 10.4375 C 23.59375 10.886719 23.984375 11.5 24.164062 12.28125 L 22.445312 12.609375 C 22.320312 12.195312 22.089844 11.867188 21.757812 11.625 C 21.421875 11.375 21.007812 11.25 20.507812 11.25 C 19.746094 11.25 19.140625 11.492188 18.695312 11.96875 C 18.246094 12.449219 18.023438 13.164062 18.023438 14.109375 C 18.023438 15.132812 18.246094 15.898438 18.695312 16.40625 C 19.152344 16.90625 19.75 17.15625 20.492188 17.15625 C 20.855469 17.15625 21.21875 17.089844 21.585938 16.953125 C 21.949219 16.808594 22.261719 16.636719 22.523438 16.4375 L 22.523438 15.34375 Z M 20.539062 15.34375 "/>
</g>
</svg>
